<mxfile host="app.diagrams.net" modified="2024-01-20T22:13:07.345Z" agent="Mozilla/5.0 (Macintosh; Intel Mac OS X 10_15_7) AppleWebKit/537.36 (KHTML, like Gecko) Chrome/120.0.0.0 Safari/537.36" etag="IZjGbloF_oGZ-OXTWe7d" version="22.1.21" type="github">
  <diagram name="Page-1" id="amXx1AUA7oKwc4YvYZCA">
    <mxGraphModel dx="1037" dy="590" grid="1" gridSize="10" guides="1" tooltips="1" connect="1" arrows="1" fold="1" page="1" pageScale="1" pageWidth="827" pageHeight="1169" math="0" shadow="0">
      <root>
        <mxCell id="0" />
        <mxCell id="1" parent="0" />
        <mxCell id="Bt12XFEMHYhlOBlWCHLS-24" value="" style="rounded=0;whiteSpace=wrap;html=1;" vertex="1" parent="1">
          <mxGeometry x="348" y="100" width="292" height="150" as="geometry" />
        </mxCell>
        <mxCell id="Bt12XFEMHYhlOBlWCHLS-2" value="" style="shape=actor;whiteSpace=wrap;html=1;" vertex="1" parent="1">
          <mxGeometry x="60" y="380" width="40" height="60" as="geometry" />
        </mxCell>
        <mxCell id="Bt12XFEMHYhlOBlWCHLS-3" value="" style="aspect=fixed;sketch=0;html=1;dashed=0;whitespace=wrap;fillColor=#2875E2;strokeColor=#ffffff;points=[[0.005,0.63,0],[0.1,0.2,0],[0.9,0.2,0],[0.5,0,0],[0.995,0.63,0],[0.72,0.99,0],[0.5,1,0],[0.28,0.99,0]];shape=mxgraph.kubernetes.icon2;prIcon=api" vertex="1" parent="1">
          <mxGeometry x="280" y="172" width="50" height="48" as="geometry" />
        </mxCell>
        <mxCell id="Bt12XFEMHYhlOBlWCHLS-4" value="" style="image;aspect=fixed;html=1;points=[];align=center;fontSize=12;image=img/lib/azure2/general/Dashboard.svg;" vertex="1" parent="1">
          <mxGeometry x="280" y="561" width="68" height="48" as="geometry" />
        </mxCell>
        <mxCell id="Bt12XFEMHYhlOBlWCHLS-5" value="" style="sketch=0;outlineConnect=0;fontColor=#232F3E;gradientColor=none;fillColor=#E7157B;strokeColor=none;dashed=0;verticalLabelPosition=bottom;verticalAlign=top;align=center;html=1;fontSize=12;fontStyle=0;aspect=fixed;pointerEvents=1;shape=mxgraph.aws4.endpoint;" vertex="1" parent="1">
          <mxGeometry x="550" y="180" width="40" height="40" as="geometry" />
        </mxCell>
        <mxCell id="Bt12XFEMHYhlOBlWCHLS-6" value="User" style="text;html=1;strokeColor=none;fillColor=none;align=center;verticalAlign=middle;whiteSpace=wrap;rounded=0;" vertex="1" parent="1">
          <mxGeometry x="50" y="440" width="60" height="30" as="geometry" />
        </mxCell>
        <mxCell id="Bt12XFEMHYhlOBlWCHLS-7" value="API" style="text;html=1;strokeColor=none;fillColor=none;align=center;verticalAlign=middle;whiteSpace=wrap;rounded=0;" vertex="1" parent="1">
          <mxGeometry x="275" y="220" width="60" height="30" as="geometry" />
        </mxCell>
        <mxCell id="Bt12XFEMHYhlOBlWCHLS-8" value="Dashboard" style="text;html=1;strokeColor=none;fillColor=none;align=center;verticalAlign=middle;whiteSpace=wrap;rounded=0;" vertex="1" parent="1">
          <mxGeometry x="280" y="609" width="60" height="30" as="geometry" />
        </mxCell>
        <mxCell id="Bt12XFEMHYhlOBlWCHLS-9" value="" style="sketch=0;outlineConnect=0;fontColor=#232F3E;gradientColor=none;fillColor=#E7157B;strokeColor=none;dashed=0;verticalLabelPosition=bottom;verticalAlign=top;align=center;html=1;fontSize=12;fontStyle=0;aspect=fixed;pointerEvents=1;shape=mxgraph.aws4.endpoint;" vertex="1" parent="1">
          <mxGeometry x="470" y="180" width="40" height="40" as="geometry" />
        </mxCell>
        <mxCell id="Bt12XFEMHYhlOBlWCHLS-11" value="" style="sketch=0;outlineConnect=0;fontColor=#232F3E;gradientColor=none;fillColor=#E7157B;strokeColor=none;dashed=0;verticalLabelPosition=bottom;verticalAlign=top;align=center;html=1;fontSize=12;fontStyle=0;aspect=fixed;pointerEvents=1;shape=mxgraph.aws4.endpoint;" vertex="1" parent="1">
          <mxGeometry x="393" y="180" width="40" height="40" as="geometry" />
        </mxCell>
        <mxCell id="Bt12XFEMHYhlOBlWCHLS-13" value="Register a new stock" style="text;html=1;strokeColor=none;fillColor=none;align=center;verticalAlign=middle;whiteSpace=wrap;rounded=0;" vertex="1" parent="1">
          <mxGeometry x="383" y="150" width="60" height="30" as="geometry" />
        </mxCell>
        <mxCell id="Bt12XFEMHYhlOBlWCHLS-14" value="add financial transaction" style="text;html=1;strokeColor=none;fillColor=none;align=center;verticalAlign=middle;whiteSpace=wrap;rounded=0;" vertex="1" parent="1">
          <mxGeometry x="460" y="130" width="60" height="30" as="geometry" />
        </mxCell>
        <mxCell id="Bt12XFEMHYhlOBlWCHLS-16" value="" style="endArrow=classic;startArrow=classic;html=1;rounded=0;exitX=0.9;exitY=0.5;exitDx=0;exitDy=0;exitPerimeter=0;entryX=0.005;entryY=0.63;entryDx=0;entryDy=0;entryPerimeter=0;" edge="1" parent="1" source="Bt12XFEMHYhlOBlWCHLS-2" target="Bt12XFEMHYhlOBlWCHLS-3">
          <mxGeometry width="50" height="50" relative="1" as="geometry">
            <mxPoint x="170" y="550" as="sourcePoint" />
            <mxPoint x="220" y="500" as="targetPoint" />
          </mxGeometry>
        </mxCell>
        <mxCell id="Bt12XFEMHYhlOBlWCHLS-17" value="" style="endArrow=classic;html=1;rounded=0;exitX=1;exitY=0.75;exitDx=0;exitDy=0;entryX=-0.033;entryY=0.523;entryDx=0;entryDy=0;entryPerimeter=0;" edge="1" parent="1" source="Bt12XFEMHYhlOBlWCHLS-2" target="Bt12XFEMHYhlOBlWCHLS-4">
          <mxGeometry width="50" height="50" relative="1" as="geometry">
            <mxPoint x="170" y="550" as="sourcePoint" />
            <mxPoint x="220" y="500" as="targetPoint" />
          </mxGeometry>
        </mxCell>
        <mxCell id="Bt12XFEMHYhlOBlWCHLS-18" value="" style="image;aspect=fixed;perimeter=ellipsePerimeter;html=1;align=center;shadow=0;dashed=0;spacingTop=3;image=img/lib/active_directory/database.svg;" vertex="1" parent="1">
          <mxGeometry x="465" y="403" width="50" height="37" as="geometry" />
        </mxCell>
        <mxCell id="Bt12XFEMHYhlOBlWCHLS-19" value="get the list of stock" style="text;html=1;strokeColor=none;fillColor=none;align=center;verticalAlign=middle;whiteSpace=wrap;rounded=0;" vertex="1" parent="1">
          <mxGeometry x="540" y="130" width="60" height="30" as="geometry" />
        </mxCell>
        <mxCell id="Bt12XFEMHYhlOBlWCHLS-21" value="" style="endArrow=classic;html=1;rounded=0;entryX=0.5;entryY=0;entryDx=0;entryDy=0;" edge="1" parent="1" source="Bt12XFEMHYhlOBlWCHLS-11" target="Bt12XFEMHYhlOBlWCHLS-18">
          <mxGeometry width="50" height="50" relative="1" as="geometry">
            <mxPoint x="420" y="230" as="sourcePoint" />
            <mxPoint x="450" y="350" as="targetPoint" />
          </mxGeometry>
        </mxCell>
        <mxCell id="Bt12XFEMHYhlOBlWCHLS-22" value="" style="endArrow=classic;html=1;rounded=0;entryX=0.5;entryY=0;entryDx=0;entryDy=0;" edge="1" parent="1" source="Bt12XFEMHYhlOBlWCHLS-9" target="Bt12XFEMHYhlOBlWCHLS-18">
          <mxGeometry width="50" height="50" relative="1" as="geometry">
            <mxPoint x="435" y="230" as="sourcePoint" />
            <mxPoint x="510" y="350" as="targetPoint" />
          </mxGeometry>
        </mxCell>
        <mxCell id="Bt12XFEMHYhlOBlWCHLS-23" value="" style="endArrow=classic;html=1;rounded=0;entryX=0.5;entryY=0;entryDx=0;entryDy=0;" edge="1" parent="1" source="Bt12XFEMHYhlOBlWCHLS-5" target="Bt12XFEMHYhlOBlWCHLS-18">
          <mxGeometry width="50" height="50" relative="1" as="geometry">
            <mxPoint x="504" y="230" as="sourcePoint" />
            <mxPoint x="600" y="390" as="targetPoint" />
          </mxGeometry>
        </mxCell>
        <mxCell id="Bt12XFEMHYhlOBlWCHLS-25" style="edgeStyle=orthogonalEdgeStyle;rounded=0;orthogonalLoop=1;jettySize=auto;html=1;exitX=0.5;exitY=1;exitDx=0;exitDy=0;entryX=1.009;entryY=0.617;entryDx=0;entryDy=0;entryPerimeter=0;" edge="1" parent="1" source="Bt12XFEMHYhlOBlWCHLS-18" target="Bt12XFEMHYhlOBlWCHLS-4">
          <mxGeometry relative="1" as="geometry" />
        </mxCell>
        <mxCell id="Bt12XFEMHYhlOBlWCHLS-26" value="" style="shape=image;html=1;verticalAlign=top;verticalLabelPosition=bottom;labelBackgroundColor=#ffffff;imageAspect=0;aspect=fixed;image=https://cdn3.iconfinder.com/data/icons/customer-experience-1/32/24_Hours-128.png" vertex="1" parent="1">
          <mxGeometry x="620" y="340" width="38" height="38" as="geometry" />
        </mxCell>
        <mxCell id="Bt12XFEMHYhlOBlWCHLS-29" value="" style="endArrow=classic;startArrow=classic;html=1;rounded=0;edgeStyle=orthogonalEdgeStyle;exitX=1;exitY=0.5;exitDx=0;exitDy=0;entryX=0.5;entryY=1;entryDx=0;entryDy=0;" edge="1" parent="1" source="Bt12XFEMHYhlOBlWCHLS-18" target="Bt12XFEMHYhlOBlWCHLS-26">
          <mxGeometry width="50" height="50" relative="1" as="geometry">
            <mxPoint x="610" y="450" as="sourcePoint" />
            <mxPoint x="660" y="400" as="targetPoint" />
          </mxGeometry>
        </mxCell>
        <mxCell id="Bt12XFEMHYhlOBlWCHLS-30" value="track daily stock price" style="text;html=1;strokeColor=none;fillColor=none;align=center;verticalAlign=middle;whiteSpace=wrap;rounded=0;" vertex="1" parent="1">
          <mxGeometry x="609" y="300" width="60" height="30" as="geometry" />
        </mxCell>
      </root>
    </mxGraphModel>
  </diagram>
</mxfile>
